<svg width="88" height="31" viewBox="0 0 88 31" fill="none" xmlns="http://www.w3.org/2000/svg">
<path d="M8.20312 24.3125C5.91146 24.3125 4.04688 23.5625 2.60938 22.0625C1.17188 20.5521 0.453125 18.5365 0.453125 16.0156V15.4844C0.453125 13.8073 0.770833 12.3125 1.40625 11C2.05208 9.67708 2.94792 8.64583 4.09375 7.90625C5.25 7.15625 6.5 6.78125 7.84375 6.78125C10.0417 6.78125 11.75 7.50521 12.9688 8.95312C14.1875 10.401 14.7969 12.474 14.7969 15.1719V16.375H3.34375C3.38542 18.0417 3.86979 19.3906 4.79688 20.4219C5.73438 21.4427 6.92188 21.9531 8.35938 21.9531C9.38021 21.9531 10.2448 21.7448 10.9531 21.3281C11.6615 20.9115 12.2812 20.3594 12.8125 19.6719L14.5781 21.0469C13.1615 23.224 11.0365 24.3125 8.20312 24.3125ZM7.84375 9.15625C6.67708 9.15625 5.69792 9.58333 4.90625 10.4375C4.11458 11.2812 3.625 12.4688 3.4375 14H11.9062V13.7812C11.8229 12.3125 11.4271 11.1771 10.7188 10.375C10.0104 9.5625 9.05208 9.15625 7.84375 9.15625ZM25.3125 13.8594C22.7396 13.1198 20.8646 12.2135 19.6875 11.1406C18.5208 10.0573 17.9375 8.72396 17.9375 7.14062C17.9375 5.34896 18.651 3.86979 20.0781 2.70312C21.5156 1.52604 23.3802 0.9375 25.6719 0.9375C27.2344 0.9375 28.625 1.23958 29.8438 1.84375C31.0729 2.44792 32.0208 3.28125 32.6875 4.34375C33.3646 5.40625 33.7031 6.56771 33.7031 7.82812H30.6875C30.6875 6.45312 30.25 5.375 29.375 4.59375C28.5 3.80208 27.2656 3.40625 25.6719 3.40625C24.1927 3.40625 23.0365 3.73438 22.2031 4.39062C21.3802 5.03646 20.9688 5.9375 20.9688 7.09375C20.9688 8.02083 21.3594 8.80729 22.1406 9.45312C22.9323 10.0885 24.2708 10.6719 26.1562 11.2031C28.0521 11.7344 29.5312 12.3229 30.5938 12.9688C31.6667 13.6042 32.4583 14.349 32.9688 15.2031C33.4896 16.0573 33.75 17.0625 33.75 18.2188C33.75 20.0625 33.0312 21.5417 31.5938 22.6562C30.1562 23.7604 28.2344 24.3125 25.8281 24.3125C24.2656 24.3125 22.8073 24.0156 21.4531 23.4219C20.099 22.8177 19.0521 21.9948 18.3125 20.9531C17.5833 19.9115 17.2188 18.7292 17.2188 17.4062H20.2344C20.2344 18.7812 20.7396 19.8698 21.75 20.6719C22.7708 21.4635 24.1302 21.8594 25.8281 21.8594C27.4115 21.8594 28.625 21.5365 29.4688 20.8906C30.3125 20.2448 30.7344 19.3646 30.7344 18.25C30.7344 17.1354 30.3438 16.276 29.5625 15.6719C28.7812 15.0573 27.3646 14.4531 25.3125 13.8594ZM40.0469 9.14062C41.3281 7.56771 42.9948 6.78125 45.0469 6.78125C48.6198 6.78125 50.4219 8.79688 50.4531 12.8281V24H47.5625V12.8125C47.5521 11.5938 47.2708 10.6927 46.7188 10.1094C46.1771 9.52604 45.3281 9.23438 44.1719 9.23438C43.2344 9.23438 42.4115 9.48438 41.7031 9.98438C40.9948 10.4844 40.4427 11.1406 40.0469 11.9531V24H37.1562V0H40.0469V9.14062ZM54.0156 15.3906C54.0156 13.7344 54.3385 12.2448 54.9844 10.9219C55.6406 9.59896 56.5469 8.57812 57.7031 7.85938C58.8698 7.14062 60.1979 6.78125 61.6875 6.78125C63.9896 6.78125 65.849 7.57812 67.2656 9.17188C68.6927 10.7656 69.4062 12.8854 69.4062 15.5312V15.7344C69.4062 17.3802 69.0885 18.8594 68.4531 20.1719C67.8281 21.474 66.9271 22.4896 65.75 23.2188C64.5833 23.9479 63.2396 24.3125 61.7188 24.3125C59.4271 24.3125 57.5677 23.5156 56.1406 21.9219C54.724 20.3281 54.0156 18.2188 54.0156 15.5938V15.3906ZM56.9219 15.7344C56.9219 17.6094 57.3542 19.1146 58.2188 20.25C59.0938 21.3854 60.2604 21.9531 61.7188 21.9531C63.1875 21.9531 64.3542 21.3802 65.2188 20.2344C66.0833 19.0781 66.5156 17.4635 66.5156 15.3906C66.5156 13.5365 66.0729 12.0365 65.1875 10.8906C64.3125 9.73438 63.1458 9.15625 61.6875 9.15625C60.2604 9.15625 59.1094 9.72396 58.2344 10.8594C57.3594 11.9948 56.9219 13.6198 56.9219 15.7344ZM87.3125 15.7344C87.3125 18.3073 86.724 20.3802 85.5469 21.9531C84.3698 23.526 82.776 24.3125 80.7656 24.3125C78.7135 24.3125 77.099 23.6615 75.9219 22.3594V30.5H73.0312V7.09375H75.6719L75.8125 8.96875C76.9896 7.51042 78.625 6.78125 80.7188 6.78125C82.75 6.78125 84.3542 7.54688 85.5312 9.07812C86.7188 10.6094 87.3125 12.7396 87.3125 15.4688V15.7344ZM84.4219 15.4062C84.4219 13.5 84.0156 11.9948 83.2031 10.8906C82.3906 9.78646 81.276 9.23438 79.8594 9.23438C78.1094 9.23438 76.7969 10.0104 75.9219 11.5625V19.6406C76.7865 21.1823 78.1094 21.9531 79.8906 21.9531C81.276 21.9531 82.375 21.4062 83.1875 20.3125C84.0104 19.2083 84.4219 17.5729 84.4219 15.4062Z" fill="white"/>
</svg>
